<mxfile host="app.diagrams.net" agent="Mozilla/5.0 (Windows NT 10.0; Win64; x64) AppleWebKit/537.36 (KHTML, like Gecko) Chrome/131.0.0.0 Safari/537.36" version="25.0.3">
  <diagram id="C5RBs43oDa-KdzZeNtuy" name="Page-1">
    <mxGraphModel dx="1750" dy="2039" grid="1" gridSize="10" guides="1" tooltips="1" connect="1" arrows="1" fold="1" page="1" pageScale="1" pageWidth="827" pageHeight="1169" math="0" shadow="0">
      <root>
        <mxCell id="WIyWlLk6GJQsqaUBKTNV-0" />
        <mxCell id="WIyWlLk6GJQsqaUBKTNV-1" parent="WIyWlLk6GJQsqaUBKTNV-0" />
        <mxCell id="OCt3m1WVl4dlc46-tY5Z-19" value="" style="edgeStyle=orthogonalEdgeStyle;rounded=0;orthogonalLoop=1;jettySize=auto;html=1;" parent="WIyWlLk6GJQsqaUBKTNV-1" source="OCt3m1WVl4dlc46-tY5Z-20" target="OCt3m1WVl4dlc46-tY5Z-39" edge="1">
          <mxGeometry relative="1" as="geometry" />
        </mxCell>
        <mxCell id="OCt3m1WVl4dlc46-tY5Z-20" value="START" style="ellipse;whiteSpace=wrap;html=1;" parent="WIyWlLk6GJQsqaUBKTNV-1" vertex="1">
          <mxGeometry x="150" y="-90" width="120" height="80" as="geometry" />
        </mxCell>
        <mxCell id="OCt3m1WVl4dlc46-tY5Z-21" value="" style="edgeStyle=orthogonalEdgeStyle;rounded=0;orthogonalLoop=1;jettySize=auto;html=1;" parent="WIyWlLk6GJQsqaUBKTNV-1" source="OCt3m1WVl4dlc46-tY5Z-22" target="OCt3m1WVl4dlc46-tY5Z-25" edge="1">
          <mxGeometry relative="1" as="geometry" />
        </mxCell>
        <mxCell id="OCt3m1WVl4dlc46-tY5Z-22" value="num" style="shape=parallelogram;perimeter=parallelogramPerimeter;whiteSpace=wrap;html=1;fixedSize=1;" parent="WIyWlLk6GJQsqaUBKTNV-1" vertex="1">
          <mxGeometry x="150" y="230" width="120" height="60" as="geometry" />
        </mxCell>
        <mxCell id="OCt3m1WVl4dlc46-tY5Z-23" value="" style="edgeStyle=orthogonalEdgeStyle;rounded=0;orthogonalLoop=1;jettySize=auto;html=1;" parent="WIyWlLk6GJQsqaUBKTNV-1" source="OCt3m1WVl4dlc46-tY5Z-25" edge="1">
          <mxGeometry relative="1" as="geometry">
            <mxPoint x="490" y="410" as="targetPoint" />
          </mxGeometry>
        </mxCell>
        <mxCell id="OCt3m1WVl4dlc46-tY5Z-24" value="" style="edgeStyle=orthogonalEdgeStyle;rounded=0;orthogonalLoop=1;jettySize=auto;html=1;" parent="WIyWlLk6GJQsqaUBKTNV-1" source="OCt3m1WVl4dlc46-tY5Z-25" edge="1">
          <mxGeometry relative="1" as="geometry">
            <mxPoint x="210" y="560" as="targetPoint" />
          </mxGeometry>
        </mxCell>
        <mxCell id="OCt3m1WVl4dlc46-tY5Z-25" value="i &amp;lt;= num" style="rhombus;whiteSpace=wrap;html=1;" parent="WIyWlLk6GJQsqaUBKTNV-1" vertex="1">
          <mxGeometry x="160" y="360" width="100" height="100" as="geometry" />
        </mxCell>
        <mxCell id="OCt3m1WVl4dlc46-tY5Z-26" value="True" style="text;html=1;align=center;verticalAlign=middle;resizable=0;points=[];autosize=1;strokeColor=none;fillColor=none;" parent="WIyWlLk6GJQsqaUBKTNV-1" vertex="1">
          <mxGeometry x="354" y="380" width="50" height="30" as="geometry" />
        </mxCell>
        <mxCell id="OCt3m1WVl4dlc46-tY5Z-27" value="False" style="text;html=1;align=center;verticalAlign=middle;resizable=0;points=[];autosize=1;strokeColor=none;fillColor=none;rotation=90;" parent="WIyWlLk6GJQsqaUBKTNV-1" vertex="1">
          <mxGeometry x="200" y="488" width="50" height="30" as="geometry" />
        </mxCell>
        <mxCell id="OCt3m1WVl4dlc46-tY5Z-28" value="" style="edgeStyle=orthogonalEdgeStyle;rounded=0;orthogonalLoop=1;jettySize=auto;html=1;" parent="WIyWlLk6GJQsqaUBKTNV-1" source="OCt3m1WVl4dlc46-tY5Z-30" edge="1">
          <mxGeometry relative="1" as="geometry">
            <mxPoint x="360" y="610" as="targetPoint" />
          </mxGeometry>
        </mxCell>
        <mxCell id="OCt3m1WVl4dlc46-tY5Z-29" value="" style="edgeStyle=orthogonalEdgeStyle;rounded=0;orthogonalLoop=1;jettySize=auto;html=1;" parent="WIyWlLk6GJQsqaUBKTNV-1" source="OCt3m1WVl4dlc46-tY5Z-30" target="OCt3m1WVl4dlc46-tY5Z-35" edge="1">
          <mxGeometry relative="1" as="geometry" />
        </mxCell>
        <mxCell id="OCt3m1WVl4dlc46-tY5Z-30" value="num % i == 0" style="rhombus;whiteSpace=wrap;html=1;" parent="WIyWlLk6GJQsqaUBKTNV-1" vertex="1">
          <mxGeometry x="160" y="560" width="100" height="100" as="geometry" />
        </mxCell>
        <mxCell id="OCt3m1WVl4dlc46-tY5Z-31" value="True" style="text;html=1;align=center;verticalAlign=middle;resizable=0;points=[];autosize=1;strokeColor=none;fillColor=none;" parent="WIyWlLk6GJQsqaUBKTNV-1" vertex="1">
          <mxGeometry x="280" y="580" width="50" height="30" as="geometry" />
        </mxCell>
        <mxCell id="NUxKnnn2ovaPja7ghV20-1" style="edgeStyle=orthogonalEdgeStyle;rounded=0;orthogonalLoop=1;jettySize=auto;html=1;" edge="1" parent="WIyWlLk6GJQsqaUBKTNV-1">
          <mxGeometry relative="1" as="geometry">
            <mxPoint x="419.38" y="410" as="targetPoint" />
            <mxPoint x="419.37999999999977" y="585" as="sourcePoint" />
          </mxGeometry>
        </mxCell>
        <mxCell id="OCt3m1WVl4dlc46-tY5Z-34" style="edgeStyle=orthogonalEdgeStyle;rounded=0;orthogonalLoop=1;jettySize=auto;html=1;entryX=0;entryY=0.5;entryDx=0;entryDy=0;" parent="WIyWlLk6GJQsqaUBKTNV-1" source="OCt3m1WVl4dlc46-tY5Z-35" target="OCt3m1WVl4dlc46-tY5Z-25" edge="1">
          <mxGeometry relative="1" as="geometry">
            <mxPoint x="70" y="790" as="targetPoint" />
            <Array as="points">
              <mxPoint x="40" y="790" />
              <mxPoint x="40" y="410" />
            </Array>
          </mxGeometry>
        </mxCell>
        <mxCell id="OCt3m1WVl4dlc46-tY5Z-35" value="i++" style="whiteSpace=wrap;html=1;" parent="WIyWlLk6GJQsqaUBKTNV-1" vertex="1">
          <mxGeometry x="150" y="760" width="120" height="60" as="geometry" />
        </mxCell>
        <mxCell id="OCt3m1WVl4dlc46-tY5Z-36" value="False" style="text;html=1;align=center;verticalAlign=middle;resizable=0;points=[];autosize=1;strokeColor=none;fillColor=none;rotation=90;" parent="WIyWlLk6GJQsqaUBKTNV-1" vertex="1">
          <mxGeometry x="200" y="700" width="50" height="30" as="geometry" />
        </mxCell>
        <mxCell id="OCt3m1WVl4dlc46-tY5Z-37" value="END" style="ellipse;whiteSpace=wrap;html=1;" parent="WIyWlLk6GJQsqaUBKTNV-1" vertex="1">
          <mxGeometry x="1100" y="450" width="120" height="80" as="geometry" />
        </mxCell>
        <mxCell id="OCt3m1WVl4dlc46-tY5Z-38" value="" style="edgeStyle=orthogonalEdgeStyle;rounded=0;orthogonalLoop=1;jettySize=auto;html=1;" parent="WIyWlLk6GJQsqaUBKTNV-1" source="OCt3m1WVl4dlc46-tY5Z-39" target="OCt3m1WVl4dlc46-tY5Z-22" edge="1">
          <mxGeometry relative="1" as="geometry" />
        </mxCell>
        <mxCell id="OCt3m1WVl4dlc46-tY5Z-39" value="num, i = 2, check = 1" style="rounded=0;whiteSpace=wrap;html=1;" parent="WIyWlLk6GJQsqaUBKTNV-1" vertex="1">
          <mxGeometry x="150" y="80" width="120" height="60" as="geometry" />
        </mxCell>
        <mxCell id="NUxKnnn2ovaPja7ghV20-4" value="" style="edgeStyle=orthogonalEdgeStyle;rounded=0;orthogonalLoop=1;jettySize=auto;html=1;" edge="1" parent="WIyWlLk6GJQsqaUBKTNV-1" source="NUxKnnn2ovaPja7ghV20-0" target="NUxKnnn2ovaPja7ghV20-2">
          <mxGeometry relative="1" as="geometry" />
        </mxCell>
        <mxCell id="NUxKnnn2ovaPja7ghV20-5" style="edgeStyle=orthogonalEdgeStyle;rounded=0;orthogonalLoop=1;jettySize=auto;html=1;" edge="1" parent="WIyWlLk6GJQsqaUBKTNV-1" source="NUxKnnn2ovaPja7ghV20-0" target="NUxKnnn2ovaPja7ghV20-3">
          <mxGeometry relative="1" as="geometry">
            <Array as="points">
              <mxPoint x="540" y="595" />
            </Array>
          </mxGeometry>
        </mxCell>
        <mxCell id="NUxKnnn2ovaPja7ghV20-0" value="check == 1" style="rhombus;whiteSpace=wrap;html=1;" vertex="1" parent="WIyWlLk6GJQsqaUBKTNV-1">
          <mxGeometry x="490" y="360" width="100" height="100" as="geometry" />
        </mxCell>
        <mxCell id="NUxKnnn2ovaPja7ghV20-10" style="edgeStyle=orthogonalEdgeStyle;rounded=0;orthogonalLoop=1;jettySize=auto;html=1;entryX=0;entryY=0.5;entryDx=0;entryDy=0;" edge="1" parent="WIyWlLk6GJQsqaUBKTNV-1" source="NUxKnnn2ovaPja7ghV20-2" target="OCt3m1WVl4dlc46-tY5Z-37">
          <mxGeometry relative="1" as="geometry" />
        </mxCell>
        <mxCell id="NUxKnnn2ovaPja7ghV20-2" value="num là số nguyên tố" style="shape=parallelogram;perimeter=parallelogramPerimeter;whiteSpace=wrap;html=1;fixedSize=1;" vertex="1" parent="WIyWlLk6GJQsqaUBKTNV-1">
          <mxGeometry x="700" y="365" width="160" height="90" as="geometry" />
        </mxCell>
        <mxCell id="NUxKnnn2ovaPja7ghV20-11" style="edgeStyle=orthogonalEdgeStyle;rounded=0;orthogonalLoop=1;jettySize=auto;html=1;" edge="1" parent="WIyWlLk6GJQsqaUBKTNV-1" source="NUxKnnn2ovaPja7ghV20-3">
          <mxGeometry relative="1" as="geometry">
            <mxPoint x="1100" y="490" as="targetPoint" />
            <Array as="points">
              <mxPoint x="980" y="585" />
              <mxPoint x="980" y="490" />
            </Array>
          </mxGeometry>
        </mxCell>
        <mxCell id="NUxKnnn2ovaPja7ghV20-3" value="num không là&amp;nbsp;&lt;div&gt;số nguyên tố&lt;/div&gt;" style="shape=parallelogram;perimeter=parallelogramPerimeter;whiteSpace=wrap;html=1;fixedSize=1;" vertex="1" parent="WIyWlLk6GJQsqaUBKTNV-1">
          <mxGeometry x="700" y="540" width="160" height="90" as="geometry" />
        </mxCell>
        <mxCell id="NUxKnnn2ovaPja7ghV20-7" value="True" style="text;html=1;align=center;verticalAlign=middle;resizable=0;points=[];autosize=1;strokeColor=none;fillColor=none;" vertex="1" parent="WIyWlLk6GJQsqaUBKTNV-1">
          <mxGeometry x="610" y="380" width="50" height="30" as="geometry" />
        </mxCell>
        <mxCell id="NUxKnnn2ovaPja7ghV20-9" value="False" style="text;html=1;align=center;verticalAlign=middle;resizable=0;points=[];autosize=1;strokeColor=none;fillColor=none;rotation=90;" vertex="1" parent="WIyWlLk6GJQsqaUBKTNV-1">
          <mxGeometry x="530" y="488" width="50" height="30" as="geometry" />
        </mxCell>
        <mxCell id="NUxKnnn2ovaPja7ghV20-12" value="check = 0" style="whiteSpace=wrap;html=1;" vertex="1" parent="WIyWlLk6GJQsqaUBKTNV-1">
          <mxGeometry x="360" y="585" width="120" height="60" as="geometry" />
        </mxCell>
      </root>
    </mxGraphModel>
  </diagram>
</mxfile>
